<svg width="121" height="52" viewBox="0 0 121 52" fill="none" xmlns="http://www.w3.org/2000/svg">
<path fill-rule="evenodd" clip-rule="evenodd" d="M59.7014 24.5838L17.6118 38.1445L59.7014 52L102.388 38.1445L59.7014 24.5838ZM34.7614 34.8304V42.2485H37.7642C38.3316 42.2485 38.8025 42.1604 39.1768 41.9841C39.5511 41.8078 39.8312 41.5676 40.0171 41.2633C40.2031 40.9566 40.296 40.6113 40.296 40.2274C40.296 39.8507 40.2188 39.5295 40.0642 39.2639C39.9097 38.9983 39.7105 38.793 39.4666 38.6481C39.2251 38.5008 38.9728 38.4199 38.7095 38.4054V38.333C38.951 38.275 39.1696 38.1796 39.3652 38.0468C39.5607 37.914 39.7165 37.7414 39.8324 37.5289C39.9483 37.3139 40.0063 37.0556 40.0063 36.7537C40.0063 36.3867 39.9169 36.0583 39.7382 35.7685C39.562 35.4787 39.2951 35.2505 38.9377 35.0839C38.5828 34.9149 38.1372 34.8304 37.6012 34.8304H34.7614ZM37.5504 41.1257H36.1052V38.9524H37.5867C37.8644 38.9524 38.1034 39.0043 38.3039 39.1081C38.5043 39.2095 38.6588 39.3496 38.7675 39.5283C38.8762 39.7046 38.9305 39.9026 38.9305 40.1223C38.9305 40.4169 38.8218 40.6584 38.6045 40.8468C38.3896 41.0327 38.0382 41.1257 37.5504 41.1257ZM37.4345 37.9853H36.1052V35.9387H37.4635C37.8595 35.9387 38.1578 36.0317 38.3582 36.2176C38.561 36.4036 38.6625 36.6402 38.6625 36.9276C38.6625 37.1449 38.6081 37.3333 38.4995 37.4926C38.3932 37.6496 38.2471 37.7715 38.0612 37.8585C37.8752 37.943 37.6664 37.9853 37.4345 37.9853ZM47.6891 34.8304H46.3453V39.5645C46.3453 39.8736 46.2777 40.1489 46.1425 40.3904C46.0072 40.6318 45.8141 40.8214 45.5629 40.959C45.3142 41.0943 45.0196 41.1619 44.6791 41.1619C44.3386 41.1619 44.044 41.0943 43.7953 40.959C43.5466 40.8214 43.3534 40.6318 43.2158 40.3904C43.0805 40.1489 43.0129 39.8736 43.0129 39.5645V34.8304H41.6691V39.6768C41.6691 40.2081 41.7935 40.6753 42.0422 41.0786C42.2909 41.4818 42.641 41.797 43.0926 42.024C43.5442 42.2485 44.073 42.3608 44.6791 42.3608C45.2828 42.3608 45.8104 42.2485 46.262 42.024C46.7136 41.797 47.0637 41.4818 47.3124 41.0786C47.5636 40.6753 47.6891 40.2081 47.6891 39.6768V34.8304ZM52.9578 36.1307C53.209 36.307 53.3514 36.5533 53.3852 36.8696H54.6783C54.6711 36.4519 54.554 36.0824 54.327 35.7612C54.1 35.4377 53.7873 35.1853 53.3889 35.0042C52.9928 34.8207 52.5316 34.7289 52.0052 34.7289C51.486 34.7289 51.0212 34.8207 50.6107 35.0042C50.2001 35.1853 49.8754 35.4401 49.6363 35.7685C49.3996 36.0969 49.2813 36.4796 49.2813 36.9167C49.2813 37.448 49.4576 37.8742 49.8102 38.1953C50.1651 38.5141 50.6481 38.7519 51.259 38.9089L52.103 39.1262C52.3686 39.1938 52.6004 39.2711 52.7984 39.3581C52.9989 39.4426 53.1546 39.5488 53.2657 39.6768C53.3768 39.8024 53.4335 39.9617 53.4359 40.1549C53.4335 40.3674 53.3695 40.5534 53.244 40.7127C53.1184 40.8697 52.9445 40.9929 52.7224 41.0822C52.5026 41.1691 52.2467 41.2126 51.9545 41.2126C51.6744 41.2126 51.4208 41.1703 51.1938 41.0858C50.9692 41.0013 50.7869 40.8733 50.6469 40.7019C50.5068 40.5304 50.4271 40.3155 50.4078 40.0571H49.0857C49.105 40.5497 49.233 40.9675 49.4697 41.3104C49.7087 41.6533 50.0396 41.9141 50.4621 42.0928C50.8871 42.2715 51.3882 42.3608 51.9653 42.3608C52.5594 42.3608 53.0653 42.2691 53.483 42.0855C53.9032 41.8996 54.2244 41.6424 54.4465 41.314C54.6687 40.9832 54.7798 40.6005 54.7798 40.1658C54.7798 39.8446 54.7194 39.5645 54.5987 39.3255C54.4779 39.0864 54.3137 38.8823 54.106 38.7133C53.9008 38.5443 53.6678 38.4042 53.407 38.2931C53.1486 38.1821 52.8793 38.0939 52.5992 38.0287L51.9038 37.8549C51.7516 37.8186 51.6007 37.774 51.451 37.7208C51.3013 37.6677 51.1648 37.6025 51.0417 37.5252C50.9185 37.4456 50.8207 37.349 50.7483 37.2355C50.6783 37.122 50.6433 36.988 50.6433 36.8334C50.6457 36.6475 50.7 36.4821 50.8063 36.3372C50.9125 36.1923 51.0658 36.0776 51.2663 35.9931C51.4667 35.9085 51.707 35.8663 51.9871 35.8663C52.3855 35.8663 52.7091 35.9544 52.9578 36.1307ZM57.5256 42.2485V34.8304H56.1818V42.2485H57.5256ZM65.2809 42.2485V34.8304H63.9443V39.8869H63.8791L60.3874 34.8304H59.1848V42.2485H60.5286V37.1956H60.5902L64.0856 42.2485H65.2809ZM66.9492 34.8304V42.2485H71.8029V41.122H68.293V39.0973H71.5239V37.9708H68.293V35.9568H71.7739V34.8304H66.9492ZM76.9529 36.1307C77.2041 36.307 77.3465 36.5533 77.3803 36.8696H78.6734C78.6662 36.4519 78.5491 36.0824 78.3221 35.7612C78.0951 35.4377 77.7824 35.1853 77.384 35.0042C76.9879 34.8207 76.5267 34.7289 76.0003 34.7289C75.4811 34.7289 75.0163 34.8207 74.6058 35.0042C74.1952 35.1853 73.8705 35.4401 73.6314 35.7685C73.3947 36.0969 73.2764 36.4796 73.2764 36.9167C73.2764 37.448 73.4527 37.8742 73.8053 38.1953C74.1602 38.5141 74.6432 38.7519 75.2541 38.9089L76.0981 39.1262C76.3637 39.1938 76.5955 39.2711 76.7935 39.3581C76.994 39.4426 77.1497 39.5488 77.2608 39.6768C77.3719 39.8024 77.4286 39.9617 77.431 40.1549C77.4286 40.3674 77.3646 40.5534 77.2391 40.7127C77.1135 40.8697 76.9396 40.9929 76.7175 41.0822C76.4977 41.1691 76.2418 41.2126 75.9496 41.2126C75.6695 41.2126 75.4159 41.1703 75.1889 41.0858C74.9643 41.0013 74.782 40.8733 74.642 40.7019C74.5019 40.5304 74.4222 40.3155 74.4029 40.0571H73.0808C73.1001 40.5497 73.2281 40.9675 73.4648 41.3104C73.7038 41.6533 74.0347 41.9141 74.4572 42.0928C74.8822 42.2715 75.3833 42.3608 75.9604 42.3608C76.5545 42.3608 77.0604 42.2691 77.4781 42.0855C77.8983 41.8996 78.2195 41.6424 78.4416 41.314C78.6638 40.9832 78.7749 40.6005 78.7749 40.1658C78.7749 39.8446 78.7145 39.5645 78.5938 39.3255C78.473 39.0864 78.3088 38.8823 78.1011 38.7133C77.8959 38.5443 77.6629 38.4042 77.4021 38.2931C77.1437 38.1821 76.8744 38.0939 76.5943 38.0287L75.8989 37.8549C75.7467 37.8186 75.5958 37.774 75.4461 37.7208C75.2964 37.6677 75.1599 37.6025 75.0368 37.5252C74.9136 37.4456 74.8158 37.349 74.7434 37.2355C74.6734 37.122 74.6384 36.988 74.6384 36.8334C74.6408 36.6475 74.6951 36.4821 74.8014 36.3372C74.9076 36.1923 75.0609 36.0776 75.2614 35.9931C75.4618 35.9085 75.7021 35.8663 75.9822 35.8663C76.3806 35.8663 76.7042 35.9544 76.9529 36.1307ZM83.7809 36.1307C84.0321 36.307 84.1745 36.5533 84.2084 36.8696H85.5015C85.4942 36.4519 85.3771 36.0824 85.1501 35.7612C84.9231 35.4377 84.6104 35.1853 84.212 35.0042C83.816 34.8207 83.3547 34.7289 82.8283 34.7289C82.3091 34.7289 81.8443 34.8207 81.4338 35.0042C81.0233 35.1853 80.6985 35.4401 80.4594 35.7685C80.2228 36.0969 80.1044 36.4796 80.1044 36.9167C80.1044 37.448 80.2807 37.8742 80.6333 38.1953C80.9883 38.5141 81.4712 38.7519 82.0821 38.9089L82.9261 39.1262C83.1917 39.1938 83.4236 39.2711 83.6216 39.3581C83.822 39.4426 83.9777 39.5488 84.0888 39.6768C84.1999 39.8024 84.2567 39.9617 84.2591 40.1549C84.2567 40.3674 84.1927 40.5534 84.0671 40.7127C83.9415 40.8697 83.7677 40.9929 83.5455 41.0822C83.3258 41.1691 83.0698 41.2126 82.7776 41.2126C82.4975 41.2126 82.2439 41.1703 82.0169 41.0858C81.7924 41.0013 81.6101 40.8733 81.47 40.7019C81.3299 40.5304 81.2503 40.3155 81.2309 40.0571H79.9089C79.9282 40.5497 80.0562 40.9675 80.2928 41.3104C80.5319 41.6533 80.8627 41.9141 81.2853 42.0928C81.7103 42.2715 82.2113 42.3608 82.7885 42.3608C83.3825 42.3608 83.8884 42.2691 84.3062 42.0855C84.7263 41.8996 85.0475 41.6424 85.2696 41.314C85.4918 40.9832 85.6029 40.6005 85.6029 40.1658C85.6029 39.8446 85.5425 39.5645 85.4218 39.3255C85.301 39.0864 85.1368 38.8823 84.9292 38.7133C84.7239 38.5443 84.4909 38.4042 84.2301 38.2931C83.9717 38.1821 83.7025 38.0939 83.4223 38.0287L82.7269 37.8549C82.5748 37.8186 82.4238 37.774 82.2741 37.7208C82.1244 37.6677 81.988 37.6025 81.8648 37.5252C81.7417 37.4456 81.6439 37.349 81.5714 37.2355C81.5014 37.122 81.4664 36.988 81.4664 36.8334C81.4688 36.6475 81.5231 36.4821 81.6294 36.3372C81.7356 36.1923 81.889 36.0776 82.0894 35.9931C82.2898 35.9085 82.5301 35.8663 82.8102 35.8663C83.2086 35.8663 83.5322 35.9544 83.7809 36.1307Z" fill="#E68C2D"/>
<path fill-rule="evenodd" clip-rule="evenodd" d="M0 0.739883H22.8V30.7399H0V10.6399H18.6V4.9399H0V0.739883ZM18.6 14.5399H3.9V26.8399H18.6V14.5399Z" fill="#103C7D"/>
<path d="M26.3999 0.739883H30.2999V25.0399L54.5999 17.8399V0.739883H58.4999V21.1399L26.3999 30.7399V0.739883Z" fill="#103C7D"/>
<path d="M94.2 21.1399H90.3V25.0399L66 17.8399V5.08988H90V8.38988H94.2V0.739883H66H62.1V21.1399L94.2 30.7399V21.1399Z" fill="#103C7D"/>
<path fill-rule="evenodd" clip-rule="evenodd" d="M97.8 0.739883H120.6V30.7399H97.8V10.6399H116.4V4.93988H97.8V0.739883ZM116.4 14.5399H101.7V26.8399H116.4V14.5399Z" fill="#103C7D"/>
</svg>
